<?xml version="1.0" encoding="UTF-8"?>
<svg width="752pt" height="752pt" version="1.1" viewBox="0 0 752 752" xmlns="http://www.w3.org/2000/svg">
 <g>
  <path d="m454.93 415.46c-19.441 0.046875-37.621 9.6328-48.641 25.652-19.02-9.7305-41.559-9.7305-60.578 0-10.512-15.328-27.613-24.828-46.18-25.656-18.57-0.82813-36.449 7.1133-48.285 21.445-11.836 14.332-16.254 33.391-11.926 51.465 4.3242 18.078 16.887 33.074 33.926 40.5 17.043 7.4219 36.578 6.4102 52.762-2.7305 16.184-9.1406 27.133-25.355 29.57-43.781 5.1836-5.7656 12.57-9.0586 20.324-9.0586s15.141 3.293 20.324 9.0586c1.9844 15.125 9.7305 28.902 21.621 38.453 11.891 9.5547 27.012 14.148 42.211 12.824 15.195-1.3203 29.297-8.4609 39.359-19.926 10.059-11.465 15.309-26.371 14.648-41.613-0.66406-15.238-7.1836-29.637-18.199-40.188-11.016-10.551-25.68-16.441-40.938-16.445zm-157.86 78.934c-5.2344 0-10.25-2.082-13.953-5.7812-3.6992-3.6992-5.7773-8.7188-5.7773-13.953 0-5.2344 2.0781-10.254 5.7773-13.953 3.7031-3.6992 8.7188-5.7812 13.953-5.7812 5.2344 0 10.254 2.082 13.953 5.7812 3.7031 3.6992 5.7812 8.7188 5.7812 13.953 0 5.2344-2.0781 10.254-5.7812 13.953-3.6992 3.6992-8.7188 5.7812-13.953 5.7812zm157.86 0c-5.2305 0-10.25-2.082-13.949-5.7812-3.7031-3.6992-5.7812-8.7188-5.7812-13.953 0-5.2344 2.0781-10.254 5.7812-13.953 3.6992-3.6992 8.7188-5.7812 13.949-5.7812 5.2344 0 10.254 2.082 13.953 5.7812 3.7031 3.6992 5.7812 8.7188 5.7812 13.953 0 5.2344-2.0781 10.254-5.7812 13.953-3.6992 3.6992-8.7188 5.7812-13.953 5.7812z"/>
  <path d="m553.59 356.27h-24.074l-22.793-91.262h0.003907c-4.5469-18.203-17.449-33.172-34.785-40.352-17.332-7.1758-37.039-5.7148-53.125 3.9414l-39.465 23.977c-4.1992 2.5352-9.1953 3.4141-14.008 2.4648l-49.332-9.8672v0.003906c-14.152-2.8008-28.844-0.33594-41.305 6.9336-12.465 7.2656-21.844 18.836-26.379 32.531l-24.664 71.629h-25.258c-7.0508 0-13.566 3.7617-17.09 9.8672-3.5273 6.1055-3.5273 13.625 0 19.73 3.5234 6.1055 10.039 9.8672 17.09 9.8672h355.18c7.0508 0 13.566-3.7617 17.09-9.8672 3.5234-6.1055 3.5234-13.625 0-19.73-3.5234-6.1055-10.039-9.8672-17.09-9.8672zm-268.56-59.199c1.5195-4.5664 4.6523-8.418 8.8125-10.836 4.1602-2.4141 9.0625-3.2305 13.781-2.2852l49.332 9.8672c14.43 2.875 29.414 0.26953 42.027-7.3008l39.465-23.977c5.3828-3.3438 12.043-3.9023 17.902-1.4961 5.8633 2.4023 10.215 7.4727 11.699 13.633l20.816 81.594h-223.57z"/>
 </g>
</svg>
