<?xml version="1.0" encoding="UTF-8"?>
<svg width="752pt" height="752pt" version="1.1" viewBox="0 0 752 752" xmlns="http://www.w3.org/2000/svg">
 <path d="m546.64 374.08c-7.5117-7.5195-16.383-13.547-26.141-17.762 13.297-9.4531 21.965-24.094 23.859-40.293 1.8945-16.203-3.1641-32.449-13.918-44.711-10.758-12.262-26.203-19.395-42.512-19.629-16.312-0.23438-31.957 6.4531-43.062 18.402-5.1055-20.672-19.227-37.957-38.465-47.082-19.238-9.125-41.559-9.125-60.797 0-19.234 9.125-33.359 26.41-38.465 47.082-11.105-11.934-26.75-18.609-43.051-18.363-16.301 0.24219-31.738 7.375-42.488 19.637-10.746 12.258-15.801 28.496-13.91 44.688 1.8945 16.195 10.555 30.832 23.84 40.281-15.098 6.543-27.957 17.352-36.992 31.098-9.0391 13.75-13.867 29.84-13.887 46.289v39.961c0.015624 11.773 4.6953 23.059 13.02 31.379 8.3242 8.3242 19.609 13.008 31.379 13.02h62.395c8.3164 11.141 21.391 17.719 35.293 17.762h106.55c13.895-0.050782 26.957-6.625 35.273-17.762h62.395c11.77-0.011719 23.055-4.6953 31.379-13.02 8.3203-8.3203 13.004-19.605 13.02-31.379v-39.961c0.058593-22.383-8.8398-43.859-24.719-59.637zm-59.637-104.63c10.598 0 20.762 4.2109 28.254 11.703 7.4961 7.4961 11.707 17.66 11.707 28.258s-4.2109 20.762-11.707 28.258c-7.4922 7.4922-17.656 11.703-28.254 11.703s-20.762-4.2109-28.258-11.703c-7.4922-7.4961-11.703-17.66-11.703-28.258 0.011719-10.594 4.2227-20.754 11.715-28.242 7.4922-7.4922 17.652-11.707 28.246-11.719zm-47.539 94.609c-7.9141-6.8086-16.867-12.301-26.52-16.273 7.7852-4.7656 14.586-10.977 20.035-18.301 4.0391 10.812 11.211 20.172 20.602 26.875-4.9375 2.1172-9.6641 4.6914-14.117 7.6992zm-63.461-130.13c14.133 0 27.684 5.6133 37.676 15.605 9.9922 9.9922 15.602 23.543 15.602 37.672 0 14.133-5.6094 27.684-15.602 37.676-9.9922 9.9922-23.543 15.605-37.676 15.605-14.129 0-27.68-5.6133-37.672-15.605-9.9922-9.9922-15.605-23.543-15.605-37.676 0.015625-14.125 5.6328-27.668 15.621-37.656s23.531-15.605 37.656-15.621zm-63.457 130.13c-4.4492-3.0039-9.168-5.582-14.102-7.6992 9.3906-6.7031 16.566-16.062 20.602-26.875 5.4492 7.3242 12.254 13.535 20.039 18.301-9.6602 3.9688-18.621 9.4648-26.539 16.273zm-87.496-54.648c0-10.598 4.207-20.762 11.703-28.258 7.4922-7.4961 17.656-11.707 28.254-11.707 10.602 0 20.766 4.207 28.258 11.703 7.4961 7.4922 11.707 17.656 11.707 28.254 0 10.602-4.2109 20.766-11.703 28.258-7.4961 7.4961-17.66 11.707-28.258 11.707-10.594-0.011719-20.75-4.2266-28.242-11.715-7.4922-7.4922-11.707-17.648-11.719-28.242zm0 190.91c-7.0625-0.007812-13.832-2.8164-18.828-7.8125-4.9922-4.9922-7.8008-11.762-7.8086-18.828v-39.961c-0.023437-15.875 5.6328-31.238 15.953-43.309 10.316-12.066 24.613-20.047 40.301-22.492 15.691-2.4453 31.734 0.80078 45.238 9.1562-13.969 17.297-21.586 38.859-21.578 61.094v53.277c0 2.9844 0.30078 5.957 0.90234 8.8789zm230.87-8.8789c-0.007813 7.0625-2.8164 13.832-7.8086 18.828-4.9961 4.9922-11.766 7.8008-18.832 7.8086h-106.55c-7.0625-0.007813-13.832-2.8164-18.828-7.8086-4.9922-4.9961-7.8008-11.766-7.8086-18.828v-53.277c0-28.555 15.23-54.934 39.957-69.211 24.727-14.277 55.191-14.277 79.918 0 24.727 14.277 39.957 40.656 39.957 69.211zm97.676-17.762c-0.007812 7.0664-2.8164 13.836-7.8086 18.828-4.9961 4.9961-11.766 7.8047-18.828 7.8125h-54.18c0.59766-2.9219 0.89844-5.8984 0.89844-8.8789v-53.277c0.011719-22.234-7.6055-43.797-21.574-61.094 10.492-6.4688 22.57-9.9102 34.898-9.9453 17.66 0.007812 34.594 7.0234 47.082 19.512 12.488 12.488 19.508 29.422 19.512 47.082z"/>
</svg>
